<svg data-v-fde0c5aa="" xmlns="http://www.w3.org/2000/svg" viewBox="0 0 300 300" class="iconLeft"><!----><defs data-v-fde0c5aa=""><!----></defs><rect data-v-fde0c5aa="" fill="Transparent" x="0" y="0" width="300px" height="300px" class="logo-background-square"></rect><defs data-v-fde0c5aa=""><!----></defs><g data-v-fde0c5aa="" id="4f9d0410-3131-4e90-a008-2bf237d2a33d" fill="#091540"><path d=""></path></g><defs data-v-fde0c5aa=""><linearGradient data-v-fde0c5aa="" gradientTransform="rotate(25)" id="67ceedfa-8497-4bf7-9308-459882b450f1" x1="0%" y1="0%" x2="100%" y2="0%"><stop data-v-fde0c5aa="" offset="0%" stop-color="#85ffc7" stop-opacity="1"></stop><stop data-v-fde0c5aa="" offset="100%" stop-color="#796eff" stop-opacity="1"></stop></linearGradient></defs><g data-v-fde0c5aa="" id="7be93689-922c-4190-84c7-f3c809930b1d" stroke="none" fill="url(#67ceedfa-8497-4bf7-9308-459882b450f1)"><path d="M507.3 215.3L425.5 144V32.7c0-4.3-3.5-7.8-7.8-7.8h-63.3c-4.3 0-7.8 3.5-7.8 7.8v42.4L265.1 3.9c-2.9-2.6-7.3-2.6-10.3 0L12.5 215.3c-2.5 2.1-3.3 5.6-2.2 8.6 1.1 3 4.1 5.1 7.3 5.1h61.7v147.1l-65 53c-6.7 5.3-11 12.9-12.1 21.3-1 8.4 1.3 16.7 6.7 23.5l19.3 23.9c6.3 8 15.7 12.1 25.3 12.1 7 0 14-2.2 20-6.8l6.7-5.4c1.3 2.6 3.9 4.5 7 4.5h345.5c4.3 0 7.8-3.5 7.8-7.8V229h61.7c3.3 0 6.2-2 7.3-5.1 1.1-3 .3-6.4-2.2-8.6zM362.2 88.7V40.5h47.7v89.8l-10.3-9-37.4-32.6zM63.8 490.9c-7.2 5.6-17.7 4.4-23.4-2.8l-19.3-23.9c-2.7-3.4-3.9-7.6-3.4-11.8.5-4.3 2.7-8.1 6.4-10.9L137 349.4c.8 1.9 1.5 3.7 2.4 5.5 4 8.8 9.2 17.4 15.5 25.4 3 3.9 6.2 7.5 9.6 11 1.1 1.1 2.4 2.1 3.6 3.2 2.2 2.1 4.4 4.2 6.8 6.1L63.8 490.9zM195.4 396c-1.1-.7-2.2-1.4-3.6-2.4-2.2-1.4-4.2-3-6.3-4.6-6.8-5.4-12.9-11.6-18.3-18.5-5.5-7-10.1-14.5-13.6-22.2-2.1-4.7-4-9.5-5.5-14.4l-1.2-4.4c-.3-1.3-.7-2.7-1-4.4-.2-1.2-.5-2.4-.7-3.9-7.6-40.9 8.1-82.2 40.8-107.9 20.5-16.1 44.9-23.9 69.1-23.9 33.2 0 66.1 14.7 88.2 42.7 38.1 48.6 29.6 119.2-19 157.3-35.1 27.5-83 31.6-122.4 10.3-1.4-.7-2.7-1.5-4.2-2.4-.7-.3-1.4-.7-2.3-1.3zm237.3-182.6c-4.3 0-7.8 3.5-7.8 7.8v265.3H95v-.9l93.1-75.8c.5.3 1.1.7 1.6 1 1.7 1.1 3.5 2.1 5.1 2.9 19 10.3 39.8 15.3 60.5 15.3 28 0 55.8-9.2 78.7-27.2 55.4-43.4 65.1-123.8 21.6-179.2-43.4-55.3-123.8-65-179.2-21.5-37.4 29.3-55.2 76.4-46.6 122.8.2 1.6.5 3.1.9 4.6.3 1.7.7 3.4 1.1 5l-36.8 30V221.2c0-4.3-3.5-7.8-7.8-7.8H38.5L259.9 20.2l135.5 118.2 17.2 15 68.7 60h-48.6z"></path><path d="M307.3 367.7c17.7-13.9 28.9-33.8 31.6-56.2 2.7-22.3-3.5-44.4-17.4-62.1-28.7-36.5-81.7-42.9-118.3-14.2-36.6 28.7-43 81.8-14.3 118.3 16.6 21.1 41.3 32.2 66.3 32.2 18.4-.1 36.7-5.9 52.1-18zm-60.2 1.8c-18.2-2.2-34.5-11.3-45.8-25.7-23.4-29.7-18.1-73 11.7-96.4 12.5-9.8 27.5-14.6 42.3-14.6 20.4 0 40.5 9 54 26.2 11.3 14.4 16.3 32.4 14.1 50.6-2.2 18.2-11.3 34.4-25.8 45.8-14.4 11.3-32.3 16.3-50.5 14.1z"></path><path d="M299.9 268.6c-19.3-24.6-55-28.9-79.5-9.6-3.4 2.7-4 7.6-1.3 11 2.7 3.4 7.6 4 11 1.3 17.8-14 43.6-10.9 57.6 6.9 1.5 2 3.8 3 6.2 3 1.7 0 3.4-.5 4.8-1.7 3.2-2.6 3.8-7.5 1.2-10.9zM265 47.7c-2.9-2.6-7.3-2.6-10.3 0L115.4 169.3c-3.3 2.8-3.6 7.8-.8 11 1.5 1.8 3.7 2.7 5.9 2.7 1.8 0 3.7-.6 5.1-1.9L259.9 63.9l89.3 78c3.3 2.8 8.2 2.5 11-.8 2.8-3.3 2.5-8.2-.8-11L265 47.7zM386.4 153.6c-3.2-2.8-8.2-2.5-11 .8-2.8 3.3-2.5 8.2.8 11l18 15.7c1.5 1.3 3.3 1.9 5.1 1.9 2.2 0 4.3-.9 5.9-2.7 2.8-3.3 2.5-8.2-.8-11l-18-15.7z"></path></g><!----></svg>