<svg data-v-423bf9ae="" xmlns="http://www.w3.org/2000/svg" viewBox="0 0 3429 2867" class="iconLeftSlogan"><!----><!----><!----><g data-v-423bf9ae="" id="06ac5a57-a856-4a0d-bb8c-6fc297a34396" fill="black" transform="matrix(5.258545645690649,0,0,5.258545645690649,2880.529573603588,-43.225246134923154)"><path d="M7.63 17.18L6.10 17.18L4.65 14.08L2.66 14.08L2.66 17.18L1.26 17.18L1.26 8.43L4.76 8.43L4.76 8.43Q5.70 8.43 6.22 8.71L6.22 8.71L6.22 8.71Q6.75 8.99 6.98 9.63L6.98 9.63L6.98 9.63Q7.21 10.26 7.21 11.38L7.21 11.38L7.21 11.38Q7.21 12.46 6.94 13.07L6.94 13.07L6.94 13.07Q6.66 13.68 6.05 13.92L6.05 13.92L7.63 17.18ZM2.66 9.59L2.66 12.98L4.77 12.98L4.77 12.98Q5.32 12.98 5.53 12.85L5.53 12.85L5.53 12.85Q5.74 12.73 5.74 12.39L5.74 12.39L5.74 10.18L5.74 10.18Q5.74 9.84 5.53 9.72L5.53 9.72L5.53 9.72Q5.32 9.59 4.77 9.59L4.77 9.59L2.66 9.59ZM14.28 12.75L14.28 12.75Q14.90 12.96 15.23 13.48L15.23 13.48L15.23 13.48Q15.57 13.99 15.57 14.71L15.57 14.71L15.57 14.71Q15.57 15.90 14.96 16.54L14.96 16.54L14.96 16.54Q14.35 17.18 13.19 17.18L13.19 17.18L9.38 17.18L9.38 8.43L12.74 8.43L12.74 8.43Q13.97 8.43 14.55 8.95L14.55 8.95L14.55 8.95Q15.13 9.48 15.13 10.60L15.13 10.60L15.13 10.60Q15.13 11.38 14.93 11.87L14.93 11.87L14.93 11.87Q14.73 12.36 14.28 12.67L14.28 12.67L14.28 12.75ZM13.73 10.88L13.73 10.88Q13.73 10.07 13.50 9.76L13.50 9.76L13.50 9.76Q13.26 9.45 12.63 9.45L12.63 9.45L10.78 9.45L10.78 12.28L12.61 12.28L12.61 12.28Q13.24 12.28 13.49 11.97L13.49 11.97L13.49 11.97Q13.73 11.66 13.73 10.88L13.73 10.88ZM12.99 16.16L12.99 16.16Q13.62 16.16 13.90 15.80L13.90 15.80L13.90 15.80Q14.17 15.44 14.17 14.63L14.17 14.63L14.17 14.63Q14.17 13.89 13.90 13.57L13.90 13.57L13.90 13.57Q13.64 13.26 13.01 13.26L13.01 13.26L10.78 13.26L10.78 16.16L12.99 16.16ZM17.12 15.90L17.12 15.90Q17.68 16.04 18.43 16.14L18.43 16.14L18.43 16.14Q19.18 16.23 19.87 16.23L19.87 16.23L19.87 16.23Q20.58 16.23 21.45 16.14L21.45 16.14L21.45 13.54L20.12 13.44L20.12 13.44Q18.83 13.34 18.19 13.11L18.19 13.11L18.19 13.11Q17.54 12.88 17.28 12.38L17.28 12.38L17.28 12.38Q17.02 11.89 17.02 10.95L17.02 10.95L17.02 10.95Q17.02 9.94 17.28 9.35L17.28 9.35L17.28 9.35Q17.54 8.75 18.12 8.48L18.12 8.48L18.12 8.48Q18.70 8.22 19.68 8.22L19.68 8.22L19.68 8.22Q21.10 8.22 22.51 8.48L22.51 8.48L22.33 9.59L22.33 9.59Q21.21 9.38 19.77 9.38L19.77 9.38L19.77 9.38Q19.05 9.38 18.55 9.45L18.55 9.45L18.55 12.08L20.10 12.18L20.10 12.18Q21.22 12.25 21.84 12.51L21.84 12.51L21.84 12.51Q22.46 12.77 22.71 13.31L22.71 13.31L22.71 13.31Q22.97 13.85 22.97 14.80L22.97 14.80L22.97 14.80Q22.97 15.78 22.67 16.34L22.67 16.34L22.67 16.34Q22.36 16.90 21.66 17.14L21.66 17.14L21.66 17.14Q20.96 17.39 19.74 17.39L19.74 17.39L19.74 17.39Q18.26 17.39 16.91 17.05L16.91 17.05L17.12 15.90ZM33.33 8.43L34.73 8.43L34.73 17.18L33.33 17.18L33.33 13.40L29.69 13.40L29.69 17.18L28.29 17.18L28.29 8.43L29.69 8.43L29.69 12.29L33.33 12.29L33.33 8.43ZM39.87 17.32L39.87 17.32Q38.61 17.32 37.98 17.02L37.98 17.02L37.98 17.02Q37.34 16.72 37.09 15.95L37.09 15.95L37.09 15.95Q36.83 15.18 36.83 13.68L36.83 13.68L36.83 13.68Q36.83 12.18 37.09 11.41L37.09 11.41L37.09 11.41Q37.34 10.64 37.98 10.34L37.98 10.34L37.98 10.34Q38.61 10.04 39.87 10.04L39.87 10.04L39.87 10.04Q41.15 10.04 41.78 10.34L41.78 10.34L41.78 10.34Q42.41 10.64 42.66 11.40L42.66 11.40L42.66 11.40Q42.91 12.17 42.91 13.68L42.91 13.68L42.91 13.68Q42.91 15.18 42.66 15.95L42.66 15.95L42.66 15.95Q42.41 16.72 41.77 17.02L41.77 17.02L41.77 17.02Q41.13 17.32 39.87 17.32L39.87 17.32ZM38.29 16.17L40.78 16.17L40.78 16.17Q41.19 16.17 41.32 16.10L41.32 16.10L41.32 16.10Q41.45 16.03 41.45 15.82L41.45 15.82L41.45 11.19L38.96 11.19L38.96 11.19Q38.56 11.19 38.42 11.26L38.42 11.26L38.42 11.26Q38.29 11.33 38.29 11.54L38.29 11.54L38.29 16.17ZM52.56 10.04L52.56 10.04Q53.54 10.04 54.04 10.34L54.04 10.34L54.04 10.34Q54.54 10.64 54.54 11.23L54.54 11.23L54.54 17.18L53.14 17.18L53.14 11.19L51.66 11.19L51.66 11.19Q51.04 11.19 50.79 11.31L50.79 11.31L50.79 11.31Q50.54 11.44 50.48 11.77L50.48 11.77L50.48 17.18L49.08 17.18L49.08 11.19L47.60 11.19L47.60 11.19Q46.91 11.19 46.66 11.35L46.66 11.35L46.66 11.35Q46.41 11.52 46.41 12.00L46.41 12.00L46.41 17.18L45.01 17.18L45.01 10.18L45.65 10.18L46.03 10.88L46.03 10.88Q46.54 10.44 47.13 10.24L47.13 10.24L47.13 10.24Q47.73 10.04 48.50 10.04L48.50 10.04L48.50 10.04Q49.94 10.04 50.34 10.68L50.34 10.68L50.34 10.68Q51.25 10.04 52.56 10.04L52.56 10.04ZM59.54 16.21L59.54 16.21Q60.12 16.21 60.66 16.14L60.66 16.14L60.66 16.14Q61.21 16.06 61.96 15.88L61.96 15.88L62.15 16.90L62.15 16.90Q61.63 17.09 60.87 17.21L60.87 17.21L60.87 17.21Q60.10 17.32 59.29 17.32L59.29 17.32L59.29 17.32Q58.20 17.32 57.62 17.00L57.62 17.00L57.62 17.00Q57.05 16.69 56.81 15.92L56.81 15.92L56.81 15.92Q56.57 15.15 56.57 13.68L56.57 13.68L56.57 13.68Q56.57 12.26 56.85 11.49L56.85 11.49L56.85 11.49Q57.12 10.71 57.75 10.37L57.75 10.37L57.75 10.37Q58.38 10.04 59.53 10.04L59.53 10.04L59.53 10.04Q60.66 10.04 61.26 10.22L61.26 10.22L61.26 10.22Q61.85 10.40 62.09 10.84L62.09 10.84L62.09 10.84Q62.33 11.28 62.33 12.14L62.33 12.14L62.33 12.14Q62.33 13.16 62.03 13.61L62.03 13.61L62.03 13.61Q61.74 14.06 60.88 14.21L60.88 14.21L60.88 14.21Q60.02 14.36 58.04 14.36L58.04 14.36L58.04 16.06L58.04 16.06Q58.60 16.21 59.54 16.21L59.54 16.21ZM59.21 11.19L59.21 11.19Q58.53 11.19 58.29 11.35L58.29 11.35L58.29 11.35Q58.04 11.52 58.04 12.00L58.04 12.00L58.04 13.45L59.89 13.45L59.89 13.45Q60.58 13.45 60.82 13.29L60.82 13.29L60.82 13.29Q61.07 13.12 61.07 12.64L61.07 12.64L61.07 11.19L59.21 11.19ZM69.47 12.75L69.47 12.75Q70.08 12.96 70.42 13.48L70.42 13.48L70.42 13.48Q70.76 13.99 70.76 14.71L70.76 14.71L70.76 14.71Q70.76 15.90 70.15 16.54L70.15 16.54L70.15 16.54Q69.54 17.18 68.38 17.18L68.38 17.18L64.57 17.18L64.57 8.43L67.93 8.43L67.93 8.43Q69.16 8.43 69.74 8.95L69.74 8.95L69.74 8.95Q70.32 9.48 70.32 10.60L70.32 10.60L70.32 10.60Q70.32 11.38 70.12 11.87L70.12 11.87L70.12 11.87Q69.92 12.36 69.47 12.67L69.47 12.67L69.47 12.75ZM68.92 10.88L68.92 10.88Q68.92 10.07 68.68 9.76L68.68 9.76L68.68 9.76Q68.45 9.45 67.82 9.45L67.82 9.45L65.97 9.45L65.97 12.28L67.80 12.28L67.80 12.28Q68.43 12.28 68.68 11.97L68.68 11.97L68.68 11.97Q68.92 11.66 68.92 10.88L68.92 10.88ZM68.18 16.16L68.18 16.16Q68.81 16.16 69.08 15.80L69.08 15.80L69.08 15.80Q69.36 15.44 69.36 14.63L69.36 14.63L69.36 14.63Q69.36 13.89 69.09 13.57L69.09 13.57L69.09 13.57Q68.82 13.26 68.19 13.26L68.19 13.26L65.97 13.26L65.97 16.16L68.18 16.16ZM78.26 10.18L78.26 17.18L77.62 17.18L77.24 16.48L77.24 16.48Q76.68 16.91 76.01 17.12L76.01 17.12L76.01 17.12Q75.35 17.32 74.49 17.32L74.49 17.32L74.49 17.32Q73.54 17.32 73.09 16.96L73.09 16.96L73.09 16.96Q72.65 16.60 72.65 15.85L72.65 15.85L72.65 10.18L74.05 10.18L74.05 16.24L75.67 16.24L75.67 16.24Q76.36 16.24 76.61 16.07L76.61 16.07L76.61 16.07Q76.86 15.90 76.86 15.43L76.86 15.43L76.86 10.18L78.26 10.18ZM84.35 10.18L85.74 10.18L83.73 16.76L83.73 16.76Q83.40 17.86 83.02 18.48L83.02 18.48L83.02 18.48Q82.64 19.10 82.12 19.36L82.12 19.36L82.12 19.36Q81.61 19.63 80.82 19.63L80.82 19.63L80.82 19.63Q80.14 19.63 79.60 19.47L79.60 19.47L79.66 18.73L80.63 18.61L80.63 18.61Q81.17 18.54 81.46 18.40L81.46 18.40L81.46 18.40Q81.75 18.27 81.93 17.99L81.93 17.99L81.93 17.99Q82.11 17.71 82.26 17.18L82.26 17.18L82.39 16.76L81.61 16.76L79.60 10.18L80.99 10.18L82.60 15.57L82.74 15.57L84.35 10.18ZM89.63 16.21L89.63 16.21Q90.20 16.21 90.75 16.14L90.75 16.14L90.75 16.14Q91.29 16.06 92.05 15.88L92.05 15.88L92.23 16.90L92.23 16.90Q91.71 17.09 90.95 17.21L90.95 17.21L90.95 17.21Q90.19 17.32 89.38 17.32L89.38 17.32L89.38 17.32Q88.28 17.32 87.71 17.00L87.71 17.00L87.71 17.00Q87.14 16.69 86.90 15.92L86.90 15.92L86.90 15.92Q86.66 15.15 86.66 13.68L86.66 13.68L86.66 13.68Q86.66 12.26 86.93 11.49L86.93 11.49L86.93 11.49Q87.21 10.71 87.84 10.37L87.84 10.37L87.84 10.37Q88.47 10.04 89.61 10.04L89.61 10.04L89.61 10.04Q90.75 10.04 91.34 10.22L91.34 10.22L91.34 10.22Q91.94 10.40 92.18 10.84L92.18 10.84L92.18 10.84Q92.41 11.28 92.41 12.14L92.41 12.14L92.41 12.14Q92.41 13.16 92.12 13.61L92.12 13.61L92.12 13.61Q91.83 14.06 90.97 14.21L90.97 14.21L90.97 14.21Q90.10 14.36 88.13 14.36L88.13 14.36L88.13 16.06L88.13 16.06Q88.69 16.21 89.63 16.21L89.63 16.21ZM89.29 11.19L89.29 11.19Q88.62 11.19 88.38 11.35L88.38 11.35L88.38 11.35Q88.13 11.52 88.13 12.00L88.13 12.00L88.13 13.45L89.98 13.45L89.98 13.45Q90.66 13.45 90.91 13.29L90.91 13.29L90.91 13.29Q91.15 13.12 91.15 12.64L91.15 12.64L91.15 11.19L89.29 11.19ZM95.31 10.18L95.80 11.28L95.80 11.28Q96.43 10.72 96.88 10.42L96.88 10.42L96.88 10.42Q97.33 10.11 97.72 9.97L97.72 9.97L97.86 11.34L97.86 11.34Q97.40 11.48 96.90 11.73L96.90 11.73L96.90 11.73Q96.40 11.97 96.05 12.24L96.05 12.24L96.05 17.18L94.65 17.18L94.65 10.18L95.31 10.18ZM98.85 12.05L98.85 12.05Q98.85 10.98 99.49 10.47L99.49 10.47L99.49 10.47Q100.13 9.97 101.50 9.97L101.50 9.97L101.50 9.97Q102.72 9.97 103.82 10.28L103.82 10.28L103.63 11.30L103.63 11.30Q103.28 11.20 102.80 11.14L102.80 11.14L102.80 11.14Q102.33 11.07 101.92 11.07L101.92 11.07L101.92 11.07Q101.08 11.07 100.32 11.20L100.32 11.20L100.32 12.85L100.32 12.85Q102.00 13.09 102.80 13.34L102.80 13.34L102.80 13.34Q103.59 13.58 103.88 13.99L103.88 13.99L103.88 13.99Q104.17 14.41 104.17 15.20L104.17 15.20L104.17 15.20Q104.17 16.00 103.89 16.48L103.89 16.48L103.89 16.48Q103.60 16.95 102.96 17.17L102.96 17.17L102.96 17.17Q102.31 17.39 101.23 17.39L101.23 17.39L101.23 17.39Q100.03 17.39 98.70 16.98L98.70 16.98L98.92 15.86L98.92 15.86Q100.00 16.28 101.22 16.28L101.22 16.28L101.22 16.28Q101.64 16.28 101.96 16.24L101.96 16.24L101.96 16.24Q102.28 16.20 102.70 16.09L102.70 16.09L102.70 14.43L102.70 14.43Q100.90 14.18 100.13 13.94L100.13 13.94L100.13 13.94Q99.36 13.71 99.11 13.31L99.11 13.31L99.11 13.31Q98.85 12.91 98.85 12.05L98.85 12.05Z"></path></g><!----><g data-v-423bf9ae="" id="b903b3a0-9766-4670-afbb-a16178ceb2d4" transform="matrix(5.6438890245225695,0,0,5.6438890245225695,-10.735535622408634,-10.462303305957903)" stroke="none" fill="black"><path d="M507.3 215.3L425.5 144V32.7c0-4.3-3.5-7.8-7.8-7.8h-63.3c-4.3 0-7.8 3.5-7.8 7.8v42.4L265.1 3.9c-2.9-2.6-7.3-2.6-10.3 0L12.5 215.3c-2.5 2.1-3.3 5.6-2.2 8.6 1.1 3 4.1 5.1 7.3 5.1h61.7v147.1l-65 53c-6.7 5.3-11 12.9-12.1 21.3-1 8.4 1.3 16.7 6.7 23.5l19.3 23.9c6.3 8 15.7 12.1 25.3 12.1 7 0 14-2.2 20-6.8l6.7-5.4c1.3 2.6 3.9 4.5 7 4.5h345.5c4.3 0 7.8-3.5 7.8-7.8V229h61.7c3.3 0 6.2-2 7.3-5.1 1.1-3 .3-6.4-2.2-8.6zM362.2 88.7V40.5h47.7v89.8l-10.3-9-37.4-32.6zM63.8 490.9c-7.2 5.6-17.7 4.4-23.4-2.8l-19.3-23.9c-2.7-3.4-3.9-7.6-3.4-11.8.5-4.3 2.7-8.1 6.4-10.9L137 349.4c.8 1.9 1.5 3.7 2.4 5.5 4 8.8 9.2 17.4 15.5 25.4 3 3.9 6.2 7.5 9.6 11 1.1 1.1 2.4 2.1 3.6 3.2 2.2 2.1 4.4 4.2 6.8 6.1L63.8 490.9zM195.4 396c-1.1-.7-2.2-1.4-3.6-2.4-2.2-1.4-4.2-3-6.3-4.6-6.8-5.4-12.9-11.6-18.3-18.5-5.5-7-10.1-14.5-13.6-22.2-2.1-4.7-4-9.5-5.5-14.4l-1.2-4.4c-.3-1.3-.7-2.7-1-4.4-.2-1.2-.5-2.4-.7-3.9-7.6-40.9 8.1-82.2 40.8-107.9 20.5-16.1 44.9-23.9 69.1-23.9 33.2 0 66.1 14.7 88.2 42.7 38.1 48.6 29.6 119.2-19 157.3-35.1 27.5-83 31.6-122.4 10.3-1.4-.7-2.7-1.5-4.2-2.4-.7-.3-1.4-.7-2.3-1.3zm237.3-182.6c-4.3 0-7.8 3.5-7.8 7.8v265.3H95v-.9l93.1-75.8c.5.3 1.1.7 1.6 1 1.7 1.1 3.5 2.1 5.1 2.9 19 10.3 39.8 15.3 60.5 15.3 28 0 55.8-9.2 78.7-27.2 55.4-43.4 65.1-123.8 21.6-179.2-43.4-55.3-123.8-65-179.2-21.5-37.4 29.3-55.2 76.4-46.6 122.8.2 1.6.5 3.1.9 4.6.3 1.7.7 3.4 1.1 5l-36.8 30V221.2c0-4.3-3.5-7.8-7.8-7.8H38.5L259.9 20.2l135.5 118.2 17.2 15 68.7 60h-48.6z"></path><path d="M307.3 367.7c17.7-13.9 28.9-33.8 31.6-56.2 2.7-22.3-3.5-44.4-17.4-62.1-28.7-36.5-81.7-42.9-118.3-14.2-36.6 28.7-43 81.8-14.3 118.3 16.6 21.1 41.3 32.2 66.3 32.2 18.4-.1 36.7-5.9 52.1-18zm-60.2 1.8c-18.2-2.2-34.5-11.3-45.8-25.7-23.4-29.7-18.1-73 11.7-96.4 12.5-9.8 27.5-14.6 42.3-14.6 20.4 0 40.5 9 54 26.2 11.3 14.4 16.3 32.4 14.1 50.6-2.2 18.2-11.3 34.4-25.8 45.8-14.4 11.3-32.3 16.3-50.5 14.1z"></path><path d="M299.9 268.6c-19.3-24.6-55-28.9-79.5-9.6-3.4 2.7-4 7.6-1.3 11 2.7 3.4 7.6 4 11 1.3 17.8-14 43.6-10.9 57.6 6.9 1.5 2 3.8 3 6.2 3 1.7 0 3.4-.5 4.8-1.7 3.2-2.6 3.8-7.5 1.2-10.9zM265 47.7c-2.9-2.6-7.3-2.6-10.3 0L115.4 169.3c-3.3 2.8-3.6 7.8-.8 11 1.5 1.8 3.7 2.7 5.9 2.7 1.8 0 3.7-.6 5.1-1.9L259.9 63.9l89.3 78c3.3 2.8 8.2 2.5 11-.8 2.8-3.3 2.5-8.2-.8-11L265 47.7zM386.4 153.6c-3.2-2.8-8.2-2.5-11 .8-2.8 3.3-2.5 8.2.8 11l18 15.7c1.5 1.3 3.3 1.9 5.1 1.9 2.2 0 4.3-.9 5.9-2.7 2.8-3.3 2.5-8.2-.8-11l-18-15.7z"></path></g><!----><g data-v-423bf9ae="" id="077db061-1f33-431d-86f5-dde1e6b12985" fill="black" transform="matrix(2.303040237933525,0,0,2.303040237933525,2884.253574253945,41.875074289014734)"><path d="M7.63 17.18L6.10 17.18L4.65 14.08L2.66 14.08L2.66 17.18L1.26 17.18L1.26 8.43L4.76 8.43L4.76 8.43Q5.70 8.43 6.22 8.71L6.22 8.71L6.22 8.71Q6.75 8.99 6.98 9.63L6.98 9.63L6.98 9.63Q7.21 10.26 7.21 11.38L7.21 11.38L7.21 11.38Q7.21 12.46 6.94 13.07L6.94 13.07L6.94 13.07Q6.66 13.68 6.05 13.92L6.05 13.92L7.63 17.18ZM2.66 9.59L2.66 12.98L4.77 12.98L4.77 12.98Q5.32 12.98 5.53 12.85L5.53 12.85L5.53 12.85Q5.74 12.73 5.74 12.39L5.74 12.39L5.74 10.18L5.74 10.18Q5.74 9.84 5.53 9.72L5.53 9.72L5.53 9.72Q5.32 9.59 4.77 9.59L4.77 9.59L2.66 9.59ZM11.93 16.21L11.93 16.21Q12.50 16.21 13.05 16.14L13.05 16.14L13.05 16.14Q13.59 16.06 14.35 15.88L14.35 15.88L14.53 16.90L14.53 16.90Q14.01 17.09 13.25 17.21L13.25 17.21L13.25 17.21Q12.49 17.32 11.68 17.32L11.68 17.32L11.68 17.32Q10.58 17.32 10.01 17.00L10.01 17.00L10.01 17.00Q9.44 16.69 9.20 15.92L9.20 15.92L9.20 15.92Q8.96 15.15 8.96 13.68L8.96 13.68L8.96 13.68Q8.96 12.26 9.23 11.49L9.23 11.49L9.23 11.49Q9.51 10.71 10.14 10.37L10.14 10.37L10.14 10.37Q10.77 10.04 11.91 10.04L11.91 10.04L11.91 10.04Q13.05 10.04 13.64 10.22L13.64 10.22L13.64 10.22Q14.24 10.40 14.48 10.84L14.48 10.84L14.48 10.84Q14.71 11.28 14.71 12.14L14.71 12.14L14.71 12.14Q14.71 13.16 14.42 13.61L14.42 13.61L14.42 13.61Q14.13 14.06 13.27 14.21L13.27 14.21L13.27 14.21Q12.40 14.36 10.43 14.36L10.43 14.36L10.43 16.06L10.43 16.06Q10.99 16.21 11.93 16.21L11.93 16.21ZM11.59 11.19L11.59 11.19Q10.92 11.19 10.68 11.35L10.68 11.35L10.68 11.35Q10.43 11.52 10.43 12.00L10.43 12.00L10.43 13.45L12.28 13.45L12.28 13.45Q12.96 13.45 13.21 13.29L13.21 13.29L13.21 13.29Q13.45 13.12 13.45 12.64L13.45 12.64L13.45 11.19L11.59 11.19ZM19.56 10.04L19.56 10.04Q20.52 10.04 21.08 10.23L21.08 10.23L21.08 10.23Q21.64 10.42 21.89 10.84L21.89 10.84L21.89 10.84Q22.13 11.27 22.13 12.00L22.13 12.00L22.13 17.18L21.49 17.18L21.11 16.48L21.11 16.48Q20.61 16.91 20.00 17.12L20.00 17.12L20.00 17.12Q19.39 17.32 18.61 17.32L18.61 17.32L18.61 17.32Q17.44 17.32 16.95 16.84L16.95 16.84L16.95 16.84Q16.46 16.35 16.46 15.22L16.46 15.22L16.46 15.22Q16.46 14.20 16.74 13.75L16.74 13.75L16.74 13.75Q17.02 13.30 17.84 13.15L17.84 13.15L17.84 13.15Q18.66 12.99 20.52 12.99L20.52 12.99L20.73 12.99L20.73 11.30L20.73 11.30Q20.22 11.14 19.32 11.14L19.32 11.14L19.32 11.14Q18.20 11.14 16.95 11.48L16.95 11.48L16.77 10.46L16.77 10.46Q17.29 10.28 18.06 10.16L18.06 10.16L18.06 10.16Q18.83 10.04 19.56 10.04L19.56 10.04ZM19.61 16.24L19.61 16.24Q20.27 16.24 20.50 16.07L20.50 16.07L20.50 16.07Q20.73 15.90 20.73 15.43L20.73 15.43L20.73 13.90L18.87 13.90L18.87 13.90Q18.21 13.90 17.98 14.07L17.98 14.07L17.98 14.07Q17.74 14.24 17.74 14.71L17.74 14.71L17.74 16.24L19.61 16.24ZM25.91 16.14L25.91 16.14Q26.19 16.18 26.56 16.21L26.56 16.21L26.47 17.16L26.47 17.16Q25.96 17.32 25.55 17.32L25.55 17.32L25.55 17.32Q25.02 17.32 24.77 17.06L24.77 17.06L24.77 17.06Q24.51 16.80 24.51 16.27L24.51 16.27L24.51 8.08L25.91 7.87L25.91 16.14ZM33.28 13.36L33.28 16.02L37.13 16.02L37.13 17.18L31.88 17.18L31.88 8.43L37.09 8.43L36.92 9.59L33.28 9.59L33.28 12.25L36.60 12.25L36.60 13.36L33.28 13.36ZM38.61 12.05L38.61 12.05Q38.61 10.98 39.25 10.47L39.25 10.47L39.25 10.47Q39.89 9.97 41.26 9.97L41.26 9.97L41.26 9.97Q42.48 9.97 43.58 10.28L43.58 10.28L43.39 11.30L43.39 11.30Q43.04 11.20 42.56 11.14L42.56 11.14L42.56 11.14Q42.08 11.07 41.68 11.07L41.68 11.07L41.68 11.07Q40.84 11.07 40.08 11.20L40.08 11.20L40.08 12.85L40.08 12.85Q41.76 13.09 42.55 13.34L42.55 13.34L42.55 13.34Q43.34 13.58 43.64 13.99L43.64 13.99L43.64 13.99Q43.93 14.41 43.93 15.20L43.93 15.20L43.93 15.20Q43.93 16.00 43.65 16.48L43.65 16.48L43.65 16.48Q43.36 16.95 42.71 17.17L42.71 17.17L42.71 17.17Q42.07 17.39 40.99 17.39L40.99 17.39L40.99 17.39Q39.79 17.39 38.46 16.98L38.46 16.98L38.68 15.86L38.68 15.86Q39.76 16.28 40.98 16.28L40.98 16.28L40.98 16.28Q41.40 16.28 41.72 16.24L41.72 16.24L41.72 16.24Q42.04 16.20 42.46 16.09L42.46 16.09L42.46 14.43L42.46 14.43Q40.66 14.18 39.89 13.94L39.89 13.94L39.89 13.94Q39.12 13.71 38.86 13.31L38.86 13.31L38.86 13.31Q38.61 12.91 38.61 12.05L38.61 12.05ZM48.89 11.14L47.64 11.14L47.64 16.14L47.64 16.14Q48.15 16.20 48.64 16.21L48.64 16.21L48.55 17.16L48.55 17.16Q47.77 17.32 47.28 17.32L47.28 17.32L47.28 17.32Q46.75 17.32 46.49 17.06L46.49 17.06L46.49 17.06Q46.24 16.80 46.24 16.27L46.24 16.27L46.24 11.14L45.26 11.14L45.26 10.18L46.24 10.18L46.24 8.68L47.64 8.33L47.64 10.18L48.89 10.18L48.89 11.14ZM53.38 10.04L53.38 10.04Q54.35 10.04 54.91 10.23L54.91 10.23L54.91 10.23Q55.47 10.42 55.71 10.84L55.71 10.84L55.71 10.84Q55.96 11.27 55.96 12.00L55.96 12.00L55.96 17.18L55.31 17.18L54.94 16.48L54.94 16.48Q54.43 16.91 53.82 17.12L53.82 17.12L53.82 17.12Q53.21 17.32 52.43 17.32L52.43 17.32L52.43 17.32Q51.27 17.32 50.78 16.84L50.78 16.84L50.78 16.84Q50.29 16.35 50.29 15.22L50.29 15.22L50.29 15.22Q50.29 14.20 50.57 13.75L50.57 13.75L50.57 13.75Q50.85 13.30 51.67 13.15L51.67 13.15L51.67 13.15Q52.49 12.99 54.35 12.99L54.35 12.99L54.56 12.99L54.56 11.30L54.56 11.30Q54.04 11.14 53.14 11.14L53.14 11.14L53.14 11.14Q52.02 11.14 50.78 11.48L50.78 11.48L50.60 10.46L50.60 10.46Q51.11 10.28 51.88 10.16L51.88 10.16L51.88 10.16Q52.65 10.04 53.38 10.04L53.38 10.04ZM53.44 16.24L53.44 16.24Q54.10 16.24 54.33 16.07L54.33 16.07L54.33 16.07Q54.56 15.90 54.56 15.43L54.56 15.43L54.56 13.90L52.70 13.90L52.70 13.90Q52.04 13.90 51.80 14.07L51.80 14.07L51.80 14.07Q51.56 14.24 51.56 14.71L51.56 14.71L51.56 16.24L53.44 16.24ZM61.47 11.14L60.23 11.14L60.23 16.14L60.23 16.14Q60.73 16.20 61.22 16.21L61.22 16.21L61.14 17.16L61.14 17.16Q60.35 17.32 59.86 17.32L59.86 17.32L59.86 17.32Q59.33 17.32 59.08 17.06L59.08 17.06L59.08 17.06Q58.83 16.80 58.83 16.27L58.83 16.27L58.83 11.14L57.85 11.14L57.85 10.18L58.83 10.18L58.83 8.68L60.23 8.33L60.23 10.18L61.47 10.18L61.47 11.14ZM65.91 16.21L65.91 16.21Q66.49 16.21 67.03 16.14L67.03 16.14L67.03 16.14Q67.58 16.06 68.33 15.88L68.33 15.88L68.52 16.90L68.52 16.90Q68.00 17.09 67.24 17.21L67.24 17.21L67.24 17.21Q66.47 17.32 65.66 17.32L65.66 17.32L65.66 17.32Q64.57 17.32 63.99 17.00L63.99 17.00L63.99 17.00Q63.42 16.69 63.18 15.92L63.18 15.92L63.18 15.92Q62.94 15.15 62.94 13.68L62.94 13.68L62.94 13.68Q62.94 12.26 63.22 11.49L63.22 11.49L63.22 11.49Q63.49 10.71 64.12 10.37L64.12 10.37L64.12 10.37Q64.75 10.04 65.90 10.04L65.90 10.04L65.90 10.04Q67.03 10.04 67.63 10.22L67.63 10.22L67.63 10.22Q68.22 10.40 68.46 10.84L68.46 10.84L68.46 10.84Q68.70 11.28 68.70 12.14L68.70 12.14L68.70 12.14Q68.70 13.16 68.40 13.61L68.40 13.61L68.40 13.61Q68.11 14.06 67.25 14.21L67.25 14.21L67.25 14.21Q66.39 14.36 64.41 14.36L64.41 14.36L64.41 16.06L64.41 16.06Q64.97 16.21 65.91 16.21L65.91 16.21ZM65.58 11.19L65.58 11.19Q64.90 11.19 64.66 11.35L64.66 11.35L64.66 11.35Q64.41 11.52 64.41 12.00L64.41 12.00L64.41 13.45L66.26 13.45L66.26 13.45Q66.95 13.45 67.19 13.29L67.19 13.29L67.19 13.29Q67.44 13.12 67.44 12.64L67.44 12.64L67.44 11.19L65.58 11.19ZM74.23 17.18L74.82 8.43L76.75 8.43L78.69 14.98L78.79 14.98L80.74 8.43L82.67 8.43L83.26 17.18L81.87 17.18L81.42 10.28L81.34 10.28L79.31 17.18L78.18 17.18L76.15 10.28L76.06 10.28L75.61 17.18L74.23 17.18ZM88.17 10.04L88.17 10.04Q89.14 10.04 89.70 10.23L89.70 10.23L89.70 10.23Q90.26 10.42 90.50 10.84L90.50 10.84L90.50 10.84Q90.75 11.27 90.75 12.00L90.75 12.00L90.75 17.18L90.10 17.18L89.73 16.48L89.73 16.48Q89.22 16.91 88.61 17.12L88.61 17.12L88.61 17.12Q88.00 17.32 87.22 17.32L87.22 17.32L87.22 17.32Q86.06 17.32 85.57 16.84L85.57 16.84L85.57 16.84Q85.08 16.35 85.08 15.22L85.08 15.22L85.08 15.22Q85.08 14.20 85.36 13.75L85.36 13.75L85.36 13.75Q85.64 13.30 86.46 13.15L86.46 13.15L86.46 13.15Q87.28 12.99 89.14 12.99L89.14 12.99L89.35 12.99L89.35 11.30L89.35 11.30Q88.83 11.14 87.93 11.14L87.93 11.14L87.93 11.14Q86.81 11.14 85.57 11.48L85.57 11.48L85.39 10.46L85.39 10.46Q85.90 10.28 86.67 10.16L86.67 10.16L86.67 10.16Q87.44 10.04 88.17 10.04L88.17 10.04ZM88.23 16.24L88.23 16.24Q88.89 16.24 89.12 16.07L89.12 16.07L89.12 16.07Q89.35 15.90 89.35 15.43L89.35 15.43L89.35 13.90L87.49 13.90L87.49 13.90Q86.83 13.90 86.59 14.07L86.59 14.07L86.59 14.07Q86.35 14.24 86.35 14.71L86.35 14.71L86.35 16.24L88.23 16.24ZM93.20 17.18L93.20 10.18L93.84 10.18L94.22 10.88L94.22 10.88Q94.75 10.44 95.38 10.24L95.38 10.24L95.38 10.24Q96.01 10.04 96.82 10.04L96.82 10.04L96.82 10.04Q97.80 10.04 98.31 10.34L98.31 10.34L98.31 10.34Q98.81 10.64 98.81 11.23L98.81 11.23L98.81 17.18L97.41 17.18L97.41 11.19L95.79 11.19L95.79 11.19Q95.10 11.19 94.85 11.35L94.85 11.35L94.85 11.35Q94.60 11.52 94.60 12.00L94.60 12.00L94.60 17.18L93.20 17.18ZM103.87 10.04L103.87 10.04Q104.83 10.04 105.39 10.23L105.39 10.23L105.39 10.23Q105.95 10.42 106.20 10.84L106.20 10.84L106.20 10.84Q106.44 11.27 106.44 12.00L106.44 12.00L106.44 17.18L105.80 17.18L105.42 16.48L105.42 16.48Q104.92 16.91 104.31 17.12L104.31 17.12L104.31 17.12Q103.70 17.32 102.91 17.32L102.91 17.32L102.91 17.32Q101.75 17.32 101.26 16.84L101.26 16.84L101.26 16.84Q100.77 16.35 100.77 15.22L100.77 15.22L100.77 15.22Q100.77 14.20 101.05 13.75L101.05 13.75L101.05 13.75Q101.33 13.30 102.15 13.15L102.15 13.15L102.15 13.15Q102.97 12.99 104.83 12.99L104.83 12.99L105.04 12.99L105.04 11.30L105.04 11.30Q104.52 11.14 103.63 11.14L103.63 11.14L103.63 11.14Q102.51 11.14 101.26 11.48L101.26 11.48L101.08 10.46L101.08 10.46Q101.60 10.28 102.37 10.16L102.37 10.16L102.37 10.16Q103.14 10.04 103.87 10.04L103.87 10.04ZM103.92 16.24L103.92 16.24Q104.58 16.24 104.81 16.07L104.81 16.07L104.81 16.07Q105.04 15.90 105.04 15.43L105.04 15.43L105.04 13.90L103.18 13.90L103.18 13.90Q102.52 13.90 102.28 14.07L102.28 14.07L102.28 14.07Q102.05 14.24 102.05 14.71L102.05 14.71L102.05 16.24L103.92 16.24ZM111.23 16.14L111.23 16.14Q112.39 16.27 112.94 16.43L112.94 16.43L112.94 16.43Q113.48 16.59 113.68 16.87L113.68 16.87L113.68 16.87Q113.88 17.15 113.88 17.72L113.88 17.72L113.88 17.72Q113.88 18.38 113.61 18.77L113.61 18.77L113.61 18.77Q113.34 19.15 112.73 19.32L112.73 19.32L112.73 19.32Q112.13 19.49 111.09 19.49L111.09 19.49L111.09 19.49Q110.33 19.49 109.61 19.38L109.61 19.38L109.61 19.38Q108.89 19.26 108.37 19.07L108.37 19.07L108.56 18.00L108.56 18.00Q109.28 18.19 109.80 18.26L109.80 18.26L109.80 18.26Q110.31 18.34 110.84 18.34L110.84 18.34L110.84 18.34Q111.92 18.34 112.63 18.19L112.63 18.19L112.63 17.15L112.63 17.15Q111.20 17.07 110.60 16.93L110.60 16.93L110.60 16.93Q110.00 16.79 110.00 16.55L110.00 16.55L110.38 15.11L110.38 15.11Q109.58 15.04 109.12 14.77L109.12 14.77L109.12 14.77Q108.67 14.50 108.47 13.97L108.47 13.97L108.47 13.97Q108.26 13.44 108.26 12.56L108.26 12.56L108.26 12.56Q108.26 11.56 108.52 11.01L108.52 11.01L108.52 11.01Q108.78 10.46 109.37 10.21L109.37 10.21L109.37 10.21Q109.96 9.97 111.02 9.97L111.02 9.97L111.02 9.97Q112.10 9.97 112.67 10.21L112.67 10.21L113.67 9.45L114.37 10.14L113.55 11.07L113.55 11.07Q113.79 11.61 113.79 12.56L113.79 12.56L113.79 12.56Q113.79 13.51 113.56 14.06L113.56 14.06L113.56 14.06Q113.33 14.60 112.79 14.85L112.79 14.85L112.79 14.85Q112.25 15.11 111.30 15.13L111.30 15.13L111.23 16.14ZM109.65 11.76L109.65 14.21L111.38 14.21L111.38 14.21Q111.96 14.21 112.18 14.02L112.18 14.02L112.18 14.02Q112.41 13.83 112.41 13.34L112.41 13.34L112.41 10.89L110.67 10.89L110.67 10.89Q110.10 10.89 109.87 11.08L109.87 11.08L109.87 11.08Q109.65 11.27 109.65 11.76L109.65 11.76ZM118.52 16.21L118.52 16.21Q119.10 16.21 119.64 16.14L119.64 16.14L119.64 16.14Q120.19 16.06 120.95 15.88L120.95 15.88L121.13 16.90L121.13 16.90Q120.61 17.09 119.85 17.21L119.85 17.21L119.85 17.21Q119.08 17.32 118.27 17.32L118.27 17.32L118.27 17.32Q117.18 17.32 116.61 17.00L116.61 17.00L116.61 17.00Q116.03 16.69 115.79 15.92L115.79 15.92L115.79 15.92Q115.56 15.15 115.56 13.68L115.56 13.68L115.56 13.68Q115.56 12.26 115.83 11.49L115.83 11.49L115.83 11.49Q116.10 10.71 116.73 10.37L116.73 10.37L116.73 10.37Q117.36 10.04 118.51 10.04L118.51 10.04L118.51 10.04Q119.64 10.04 120.24 10.22L120.24 10.22L120.24 10.22Q120.83 10.40 121.07 10.84L121.07 10.84L121.07 10.84Q121.31 11.28 121.31 12.14L121.31 12.14L121.31 12.14Q121.31 13.16 121.02 13.61L121.02 13.61L121.02 13.61Q120.72 14.06 119.86 14.21L119.86 14.21L119.86 14.21Q119.00 14.36 117.03 14.36L117.03 14.36L117.03 16.06L117.03 16.06Q117.59 16.21 118.52 16.21L118.52 16.21ZM118.19 11.19L118.19 11.19Q117.52 11.19 117.27 11.35L117.27 11.35L117.27 11.35Q117.03 11.52 117.03 12.00L117.03 12.00L117.03 13.45L118.87 13.45L118.87 13.45Q119.56 13.45 119.81 13.29L119.81 13.29L119.81 13.29Q120.05 13.12 120.05 12.64L120.05 12.64L120.05 11.19L118.19 11.19ZM131.10 10.04L131.10 10.04Q132.08 10.04 132.58 10.34L132.58 10.34L132.58 10.34Q133.08 10.64 133.08 11.23L133.08 11.23L133.08 17.18L131.68 17.18L131.68 11.19L130.20 11.19L130.20 11.19Q129.58 11.19 129.33 11.31L129.33 11.31L129.33 11.31Q129.08 11.44 129.02 11.77L129.02 11.77L129.02 17.18L127.62 17.18L127.62 11.19L126.14 11.19L126.14 11.19Q125.45 11.19 125.20 11.35L125.20 11.35L125.20 11.35Q124.95 11.52 124.95 12.00L124.95 12.00L124.95 17.18L123.55 17.18L123.55 10.18L124.19 10.18L124.57 10.88L124.57 10.88Q125.08 10.44 125.67 10.24L125.67 10.24L125.67 10.24Q126.27 10.04 127.04 10.04L127.04 10.04L127.04 10.04Q128.48 10.04 128.88 10.68L128.88 10.68L128.88 10.68Q129.79 10.04 131.10 10.04L131.10 10.04ZM138.08 16.21L138.08 16.21Q138.66 16.21 139.20 16.14L139.20 16.14L139.20 16.14Q139.75 16.06 140.50 15.88L140.50 15.88L140.69 16.90L140.69 16.90Q140.17 17.09 139.41 17.21L139.41 17.21L139.41 17.21Q138.64 17.32 137.83 17.32L137.83 17.32L137.83 17.32Q136.74 17.32 136.16 17.00L136.16 17.00L136.16 17.00Q135.59 16.69 135.35 15.92L135.35 15.92L135.35 15.92Q135.11 15.15 135.11 13.68L135.11 13.68L135.11 13.68Q135.11 12.26 135.39 11.49L135.39 11.49L135.39 11.49Q135.66 10.71 136.29 10.37L136.29 10.37L136.29 10.37Q136.92 10.04 138.07 10.04L138.07 10.04L138.07 10.04Q139.20 10.04 139.80 10.22L139.80 10.22L139.80 10.22Q140.39 10.40 140.63 10.84L140.63 10.84L140.63 10.84Q140.87 11.28 140.87 12.14L140.87 12.14L140.87 12.14Q140.87 13.16 140.57 13.61L140.57 13.61L140.57 13.61Q140.28 14.06 139.42 14.21L139.42 14.21L139.42 14.21Q138.56 14.36 136.58 14.36L136.58 14.36L136.58 16.06L136.58 16.06Q137.14 16.21 138.08 16.21L138.08 16.21ZM137.75 11.19L137.75 11.19Q137.07 11.19 136.83 11.35L136.83 11.35L136.83 11.35Q136.58 11.52 136.58 12.00L136.58 12.00L136.58 13.45L138.43 13.45L138.43 13.45Q139.12 13.45 139.36 13.29L139.36 13.29L139.36 13.29Q139.61 13.12 139.61 12.64L139.61 12.64L139.61 11.19L137.75 11.19ZM143.11 17.18L143.11 10.18L143.75 10.18L144.13 10.88L144.13 10.88Q144.66 10.44 145.29 10.24L145.29 10.24L145.29 10.24Q145.92 10.04 146.73 10.04L146.73 10.04L146.73 10.04Q147.71 10.04 148.22 10.34L148.22 10.34L148.22 10.34Q148.72 10.64 148.72 11.23L148.72 11.23L148.72 17.18L147.32 17.18L147.32 11.19L145.70 11.19L145.70 11.19Q145.01 11.19 144.76 11.35L144.76 11.35L144.76 11.35Q144.51 11.52 144.51 12.00L144.51 12.00L144.51 17.18L143.11 17.18ZM154.24 11.14L152.99 11.14L152.99 16.14L152.99 16.14Q153.50 16.20 153.99 16.21L153.99 16.21L153.90 17.16L153.90 17.16Q153.12 17.32 152.63 17.32L152.63 17.32L152.63 17.32Q152.10 17.32 151.84 17.06L151.84 17.06L151.84 17.06Q151.59 16.80 151.59 16.27L151.59 16.27L151.59 11.14L150.61 11.14L150.61 10.18L151.59 10.18L151.59 8.68L152.99 8.33L152.99 10.18L154.24 10.18L154.24 11.14ZM162.29 9.59L162.29 17.18L160.89 17.18L160.89 9.59L158.58 9.59L158.58 8.43L164.60 8.43L164.60 9.59L162.29 9.59ZM167.71 17.32L167.71 17.32Q166.45 17.32 165.81 17.02L165.81 17.02L165.81 17.02Q165.17 16.72 164.92 15.95L164.92 15.95L164.92 15.95Q164.67 15.18 164.67 13.68L164.67 13.68L164.67 13.68Q164.67 12.18 164.92 11.41L164.92 11.41L164.92 11.41Q165.17 10.64 165.81 10.34L165.81 10.34L165.81 10.34Q166.45 10.04 167.71 10.04L167.71 10.04L167.71 10.04Q168.98 10.04 169.61 10.34L169.61 10.34L169.61 10.34Q170.24 10.64 170.49 11.40L170.49 11.40L170.49 11.40Q170.74 12.17 170.74 13.68L170.74 13.68L170.74 13.68Q170.74 15.18 170.49 15.95L170.49 15.95L170.49 15.95Q170.24 16.72 169.60 17.02L169.60 17.02L169.60 17.02Q168.97 17.32 167.71 17.32L167.71 17.32ZM166.12 16.17L168.62 16.17L168.62 16.17Q169.02 16.17 169.16 16.10L169.16 16.10L169.16 16.10Q169.29 16.03 169.29 15.82L169.29 15.82L169.29 11.19L166.80 11.19L166.80 11.19Q166.39 11.19 166.26 11.26L166.26 11.26L166.26 11.26Q166.12 11.33 166.12 11.54L166.12 11.54L166.12 16.17ZM175.46 17.32L175.46 17.32Q174.20 17.32 173.56 17.02L173.56 17.02L173.56 17.02Q172.93 16.72 172.68 15.95L172.68 15.95L172.68 15.95Q172.42 15.18 172.42 13.68L172.42 13.68L172.42 13.68Q172.42 12.18 172.68 11.41L172.68 11.41L172.68 11.41Q172.93 10.64 173.56 10.34L173.56 10.34L173.56 10.34Q174.20 10.04 175.46 10.04L175.46 10.04L175.46 10.04Q176.74 10.04 177.37 10.34L177.37 10.34L177.37 10.34Q178.00 10.64 178.25 11.40L178.25 11.40L178.25 11.40Q178.50 12.17 178.50 13.68L178.50 13.68L178.50 13.68Q178.50 15.18 178.25 15.95L178.25 15.95L178.25 15.95Q178.00 16.72 177.36 17.02L177.36 17.02L177.36 17.02Q176.72 17.32 175.46 17.32L175.46 17.32ZM173.88 16.17L176.37 16.17L176.37 16.17Q176.78 16.17 176.91 16.10L176.91 16.10L176.91 16.10Q177.04 16.03 177.04 15.82L177.04 15.82L177.04 11.19L174.55 11.19L174.55 11.19Q174.15 11.19 174.01 11.26L174.01 11.26L174.01 11.26Q173.88 11.33 173.88 11.54L173.88 11.54L173.88 16.17ZM181.93 16.14L181.93 16.14Q182.21 16.18 182.57 16.21L182.57 16.21L182.49 17.16L182.49 17.16Q181.97 17.32 181.57 17.32L181.57 17.32L181.57 17.32Q181.03 17.32 180.78 17.06L180.78 17.06L180.78 17.06Q180.53 16.80 180.53 16.27L180.53 16.27L180.53 8.08L181.93 7.87L181.93 16.14ZM183.92 12.05L183.92 12.05Q183.92 10.98 184.56 10.47L184.56 10.47L184.56 10.47Q185.19 9.97 186.56 9.97L186.56 9.97L186.56 9.97Q187.78 9.97 188.89 10.28L188.89 10.28L188.69 11.30L188.69 11.30Q188.34 11.20 187.87 11.14L187.87 11.14L187.87 11.14Q187.39 11.07 186.98 11.07L186.98 11.07L186.98 11.07Q186.14 11.07 185.39 11.20L185.39 11.20L185.39 12.85L185.39 12.85Q187.07 13.09 187.86 13.34L187.86 13.34L187.86 13.34Q188.65 13.58 188.94 13.99L188.94 13.99L188.94 13.99Q189.24 14.41 189.24 15.20L189.24 15.20L189.24 15.20Q189.24 16.00 188.95 16.48L188.95 16.48L188.95 16.48Q188.66 16.95 188.02 17.17L188.02 17.17L188.02 17.17Q187.38 17.39 186.30 17.39L186.30 17.39L186.30 17.39Q185.09 17.39 183.76 16.98L183.76 16.98L183.99 15.86L183.99 15.86Q185.07 16.28 186.28 16.28L186.28 16.28L186.28 16.28Q186.70 16.28 187.03 16.24L187.03 16.24L187.03 16.24Q187.35 16.20 187.77 16.09L187.77 16.09L187.77 14.43L187.77 14.43Q185.96 14.18 185.19 13.94L185.19 13.94L185.19 13.94Q184.42 13.71 184.17 13.31L184.17 13.31L184.17 13.31Q183.92 12.91 183.92 12.05L183.92 12.05Z"></path></g></svg>