<svg data-v-fde0c5aa="" xmlns="http://www.w3.org/2000/svg" viewBox="0 0 300 300" class="font"><!----><defs data-v-fde0c5aa=""><!----></defs><rect data-v-fde0c5aa="" fill="#FFFFFF" x="0" y="0" width="300px" height="300px" class="logo-background-square"></rect><defs data-v-fde0c5aa=""><!----></defs><g data-v-fde0c5aa="" id="f3405e2d-3f80-4f4a-a09d-98ea1199d44f" fill="#091540" transform="matrix(2.1377903846198043,0,0,2.1377903846198043,37.306384135766606,120.23126950579596)"><path d="M7.63 17.18L6.10 17.18L4.65 14.08L2.66 14.08L2.66 17.18L1.26 17.18L1.26 8.43L4.76 8.43L4.76 8.43Q5.70 8.43 6.22 8.71L6.22 8.71L6.22 8.71Q6.75 8.99 6.98 9.63L6.98 9.63L6.98 9.63Q7.21 10.26 7.21 11.38L7.21 11.38L7.21 11.38Q7.21 12.46 6.94 13.07L6.94 13.07L6.94 13.07Q6.66 13.68 6.05 13.92L6.05 13.92L7.63 17.18ZM2.66 9.59L2.66 12.98L4.77 12.98L4.77 12.98Q5.32 12.98 5.53 12.85L5.53 12.85L5.53 12.85Q5.74 12.73 5.74 12.39L5.74 12.39L5.74 10.18L5.74 10.18Q5.74 9.84 5.53 9.72L5.53 9.72L5.53 9.72Q5.32 9.59 4.77 9.59L4.77 9.59L2.66 9.59ZM14.28 12.75L14.28 12.75Q14.90 12.96 15.23 13.48L15.23 13.48L15.23 13.48Q15.57 13.99 15.57 14.71L15.57 14.71L15.57 14.71Q15.57 15.90 14.96 16.54L14.96 16.54L14.96 16.54Q14.35 17.18 13.19 17.18L13.19 17.18L9.38 17.18L9.38 8.43L12.74 8.43L12.74 8.43Q13.97 8.43 14.55 8.95L14.55 8.95L14.55 8.95Q15.13 9.48 15.13 10.60L15.13 10.60L15.13 10.60Q15.13 11.38 14.93 11.87L14.93 11.87L14.93 11.87Q14.73 12.36 14.28 12.67L14.28 12.67L14.28 12.75ZM13.73 10.88L13.73 10.88Q13.73 10.07 13.50 9.76L13.50 9.76L13.50 9.76Q13.26 9.45 12.63 9.45L12.63 9.45L10.78 9.45L10.78 12.28L12.61 12.28L12.61 12.28Q13.24 12.28 13.49 11.97L13.49 11.97L13.49 11.97Q13.73 11.66 13.73 10.88L13.73 10.88ZM12.99 16.16L12.99 16.16Q13.62 16.16 13.90 15.80L13.90 15.80L13.90 15.80Q14.17 15.44 14.17 14.63L14.17 14.63L14.17 14.63Q14.17 13.89 13.90 13.57L13.90 13.57L13.90 13.57Q13.64 13.26 13.01 13.26L13.01 13.26L10.78 13.26L10.78 16.16L12.99 16.16ZM17.12 15.90L17.12 15.90Q17.68 16.04 18.43 16.14L18.43 16.14L18.43 16.14Q19.18 16.23 19.87 16.23L19.87 16.23L19.87 16.23Q20.58 16.23 21.45 16.14L21.45 16.14L21.45 13.54L20.12 13.44L20.12 13.44Q18.83 13.34 18.19 13.11L18.19 13.11L18.19 13.11Q17.54 12.88 17.28 12.38L17.28 12.38L17.28 12.38Q17.02 11.89 17.02 10.95L17.02 10.95L17.02 10.95Q17.02 9.94 17.28 9.35L17.28 9.35L17.28 9.35Q17.54 8.75 18.12 8.48L18.12 8.48L18.12 8.48Q18.70 8.22 19.68 8.22L19.68 8.22L19.68 8.22Q21.10 8.22 22.51 8.48L22.51 8.48L22.33 9.59L22.33 9.59Q21.21 9.38 19.77 9.38L19.77 9.38L19.77 9.38Q19.05 9.38 18.55 9.45L18.55 9.45L18.55 12.08L20.10 12.18L20.10 12.18Q21.22 12.25 21.84 12.51L21.84 12.51L21.84 12.51Q22.46 12.77 22.71 13.31L22.71 13.31L22.71 13.31Q22.97 13.85 22.97 14.80L22.97 14.80L22.97 14.80Q22.97 15.78 22.67 16.34L22.67 16.34L22.67 16.34Q22.36 16.90 21.66 17.14L21.66 17.14L21.66 17.14Q20.96 17.39 19.74 17.39L19.74 17.39L19.74 17.39Q18.26 17.39 16.91 17.05L16.91 17.05L17.12 15.90ZM33.33 8.43L34.73 8.43L34.73 17.18L33.33 17.18L33.33 13.40L29.69 13.40L29.69 17.18L28.29 17.18L28.29 8.43L29.69 8.43L29.69 12.29L33.33 12.29L33.33 8.43ZM39.87 17.32L39.87 17.32Q38.61 17.32 37.98 17.02L37.98 17.02L37.98 17.02Q37.34 16.72 37.09 15.95L37.09 15.95L37.09 15.95Q36.83 15.18 36.83 13.68L36.83 13.68L36.83 13.68Q36.83 12.18 37.09 11.41L37.09 11.41L37.09 11.41Q37.34 10.64 37.98 10.34L37.98 10.34L37.98 10.34Q38.61 10.04 39.87 10.04L39.87 10.04L39.87 10.04Q41.15 10.04 41.78 10.34L41.78 10.34L41.78 10.34Q42.41 10.64 42.66 11.40L42.66 11.40L42.66 11.40Q42.91 12.17 42.91 13.68L42.91 13.68L42.91 13.68Q42.91 15.18 42.66 15.95L42.66 15.95L42.66 15.95Q42.41 16.72 41.77 17.02L41.77 17.02L41.77 17.02Q41.13 17.32 39.87 17.32L39.87 17.32ZM38.29 16.17L40.78 16.17L40.78 16.17Q41.19 16.17 41.32 16.10L41.32 16.10L41.32 16.10Q41.45 16.03 41.45 15.82L41.45 15.82L41.45 11.19L38.96 11.19L38.96 11.19Q38.56 11.19 38.42 11.26L38.42 11.26L38.42 11.26Q38.29 11.33 38.29 11.54L38.29 11.54L38.29 16.17ZM52.56 10.04L52.56 10.04Q53.54 10.04 54.04 10.34L54.04 10.34L54.04 10.34Q54.54 10.64 54.54 11.23L54.54 11.23L54.54 17.18L53.14 17.18L53.14 11.19L51.66 11.19L51.66 11.19Q51.04 11.19 50.79 11.31L50.79 11.31L50.79 11.31Q50.54 11.44 50.48 11.77L50.48 11.77L50.48 17.18L49.08 17.18L49.08 11.19L47.60 11.19L47.60 11.19Q46.91 11.19 46.66 11.35L46.66 11.35L46.66 11.35Q46.41 11.52 46.41 12.00L46.41 12.00L46.41 17.18L45.01 17.18L45.01 10.18L45.65 10.18L46.03 10.88L46.03 10.88Q46.54 10.44 47.13 10.24L47.13 10.24L47.13 10.24Q47.73 10.04 48.50 10.04L48.50 10.04L48.50 10.04Q49.94 10.04 50.34 10.68L50.34 10.68L50.34 10.68Q51.25 10.04 52.56 10.04L52.56 10.04ZM59.54 16.21L59.54 16.21Q60.12 16.21 60.66 16.14L60.66 16.14L60.66 16.14Q61.21 16.06 61.96 15.88L61.96 15.88L62.15 16.90L62.15 16.90Q61.63 17.09 60.87 17.21L60.87 17.21L60.87 17.21Q60.10 17.32 59.29 17.32L59.29 17.32L59.29 17.32Q58.20 17.32 57.62 17.00L57.62 17.00L57.62 17.00Q57.05 16.69 56.81 15.92L56.81 15.92L56.81 15.92Q56.57 15.15 56.57 13.68L56.57 13.68L56.57 13.68Q56.57 12.26 56.85 11.49L56.85 11.49L56.85 11.49Q57.12 10.71 57.75 10.37L57.75 10.37L57.75 10.37Q58.38 10.04 59.53 10.04L59.53 10.04L59.53 10.04Q60.66 10.04 61.26 10.22L61.26 10.22L61.26 10.22Q61.85 10.40 62.09 10.84L62.09 10.84L62.09 10.84Q62.33 11.28 62.33 12.14L62.33 12.14L62.33 12.14Q62.33 13.16 62.03 13.61L62.03 13.61L62.03 13.61Q61.74 14.06 60.88 14.21L60.88 14.21L60.88 14.21Q60.02 14.36 58.04 14.36L58.04 14.36L58.04 16.06L58.04 16.06Q58.60 16.21 59.54 16.21L59.54 16.21ZM59.21 11.19L59.21 11.19Q58.53 11.19 58.29 11.35L58.29 11.35L58.29 11.35Q58.04 11.52 58.04 12.00L58.04 12.00L58.04 13.45L59.89 13.45L59.89 13.45Q60.58 13.45 60.82 13.29L60.82 13.29L60.82 13.29Q61.07 13.12 61.07 12.64L61.07 12.64L61.07 11.19L59.21 11.19ZM69.47 12.75L69.47 12.75Q70.08 12.96 70.42 13.48L70.42 13.48L70.42 13.48Q70.76 13.99 70.76 14.71L70.76 14.71L70.76 14.71Q70.76 15.90 70.15 16.54L70.15 16.54L70.15 16.54Q69.54 17.18 68.38 17.18L68.38 17.18L64.57 17.18L64.57 8.43L67.93 8.43L67.93 8.43Q69.16 8.43 69.74 8.95L69.74 8.95L69.74 8.95Q70.32 9.48 70.32 10.60L70.32 10.60L70.32 10.60Q70.32 11.38 70.12 11.87L70.12 11.87L70.12 11.87Q69.92 12.36 69.47 12.67L69.47 12.67L69.47 12.75ZM68.92 10.88L68.92 10.88Q68.92 10.07 68.68 9.76L68.68 9.76L68.68 9.76Q68.45 9.45 67.82 9.45L67.82 9.45L65.97 9.45L65.97 12.28L67.80 12.28L67.80 12.28Q68.43 12.28 68.68 11.97L68.68 11.97L68.68 11.97Q68.92 11.66 68.92 10.88L68.92 10.88ZM68.18 16.16L68.18 16.16Q68.81 16.16 69.08 15.80L69.08 15.80L69.08 15.80Q69.36 15.44 69.36 14.63L69.36 14.63L69.36 14.63Q69.36 13.89 69.09 13.57L69.09 13.57L69.09 13.57Q68.82 13.26 68.19 13.26L68.19 13.26L65.97 13.26L65.97 16.16L68.18 16.16ZM78.26 10.18L78.26 17.18L77.62 17.18L77.24 16.48L77.24 16.48Q76.68 16.91 76.01 17.12L76.01 17.12L76.01 17.12Q75.35 17.32 74.49 17.32L74.49 17.32L74.49 17.32Q73.54 17.32 73.09 16.96L73.09 16.96L73.09 16.96Q72.65 16.60 72.65 15.85L72.65 15.85L72.65 10.18L74.05 10.18L74.05 16.24L75.67 16.24L75.67 16.24Q76.36 16.24 76.61 16.07L76.61 16.07L76.61 16.07Q76.86 15.90 76.86 15.43L76.86 15.43L76.86 10.18L78.26 10.18ZM84.35 10.18L85.74 10.18L83.73 16.76L83.73 16.76Q83.40 17.86 83.02 18.48L83.02 18.48L83.02 18.48Q82.64 19.10 82.12 19.36L82.12 19.36L82.12 19.36Q81.61 19.63 80.82 19.63L80.82 19.63L80.82 19.63Q80.14 19.63 79.60 19.47L79.60 19.47L79.66 18.73L80.63 18.61L80.63 18.61Q81.17 18.54 81.46 18.40L81.46 18.40L81.46 18.40Q81.75 18.27 81.93 17.99L81.93 17.99L81.93 17.99Q82.11 17.71 82.26 17.18L82.26 17.18L82.39 16.76L81.61 16.76L79.60 10.18L80.99 10.18L82.60 15.57L82.74 15.57L84.35 10.18ZM89.63 16.21L89.63 16.21Q90.20 16.21 90.75 16.14L90.75 16.14L90.75 16.14Q91.29 16.06 92.05 15.88L92.05 15.88L92.23 16.90L92.23 16.90Q91.71 17.09 90.95 17.21L90.95 17.21L90.95 17.21Q90.19 17.32 89.38 17.32L89.38 17.32L89.38 17.32Q88.28 17.32 87.71 17.00L87.71 17.00L87.71 17.00Q87.14 16.69 86.90 15.92L86.90 15.92L86.90 15.92Q86.66 15.15 86.66 13.68L86.66 13.68L86.66 13.68Q86.66 12.26 86.93 11.49L86.93 11.49L86.93 11.49Q87.21 10.71 87.84 10.37L87.84 10.37L87.84 10.37Q88.47 10.04 89.61 10.04L89.61 10.04L89.61 10.04Q90.75 10.04 91.34 10.22L91.34 10.22L91.34 10.22Q91.94 10.40 92.18 10.84L92.18 10.84L92.18 10.84Q92.41 11.28 92.41 12.14L92.41 12.14L92.41 12.14Q92.41 13.16 92.12 13.61L92.12 13.61L92.12 13.61Q91.83 14.06 90.97 14.21L90.97 14.21L90.97 14.21Q90.10 14.36 88.13 14.36L88.13 14.36L88.13 16.06L88.13 16.06Q88.69 16.21 89.63 16.21L89.63 16.21ZM89.29 11.19L89.29 11.19Q88.62 11.19 88.38 11.35L88.38 11.35L88.38 11.35Q88.13 11.52 88.13 12.00L88.13 12.00L88.13 13.45L89.98 13.45L89.98 13.45Q90.66 13.45 90.91 13.29L90.91 13.29L90.91 13.29Q91.15 13.12 91.15 12.64L91.15 12.64L91.15 11.19L89.29 11.19ZM95.31 10.18L95.80 11.28L95.80 11.28Q96.43 10.72 96.88 10.42L96.88 10.42L96.88 10.42Q97.33 10.11 97.72 9.97L97.72 9.97L97.86 11.34L97.86 11.34Q97.40 11.48 96.90 11.73L96.90 11.73L96.90 11.73Q96.40 11.97 96.05 12.24L96.05 12.24L96.05 17.18L94.65 17.18L94.65 10.18L95.31 10.18ZM98.85 12.05L98.85 12.05Q98.85 10.98 99.49 10.47L99.49 10.47L99.49 10.47Q100.13 9.97 101.50 9.97L101.50 9.97L101.50 9.97Q102.72 9.97 103.82 10.28L103.82 10.28L103.63 11.30L103.63 11.30Q103.28 11.20 102.80 11.14L102.80 11.14L102.80 11.14Q102.33 11.07 101.92 11.07L101.92 11.07L101.92 11.07Q101.08 11.07 100.32 11.20L100.32 11.20L100.32 12.85L100.32 12.85Q102.00 13.09 102.80 13.34L102.80 13.34L102.80 13.34Q103.59 13.58 103.88 13.99L103.88 13.99L103.88 13.99Q104.17 14.41 104.17 15.20L104.17 15.20L104.17 15.20Q104.17 16.00 103.89 16.48L103.89 16.48L103.89 16.48Q103.60 16.95 102.96 17.17L102.96 17.17L102.96 17.17Q102.31 17.39 101.23 17.39L101.23 17.39L101.23 17.39Q100.03 17.39 98.70 16.98L98.70 16.98L98.92 15.86L98.92 15.86Q100.00 16.28 101.22 16.28L101.22 16.28L101.22 16.28Q101.64 16.28 101.96 16.24L101.96 16.24L101.96 16.24Q102.28 16.20 102.70 16.09L102.70 16.09L102.70 14.43L102.70 14.43Q100.90 14.18 100.13 13.94L100.13 13.94L100.13 13.94Q99.36 13.71 99.11 13.31L99.11 13.31L99.11 13.31Q98.85 12.91 98.85 12.05L98.85 12.05Z"></path></g><!----><!----></svg>